<svg width="24" height="24" viewBox="0 0 24 24" fill="white" xmlns="http://www.w3.org/2000/svg">
<path id="Vector" d="M4.125 1.5H19.875C21.324 1.5 22.5 2.676 22.5 4.125V19.875C22.5 20.5712 22.2234 21.2389 21.7312 21.7312C21.2389 22.2234 20.5712 22.5 19.875 22.5H4.125C3.42881 22.5 2.76113 22.2234 2.26884 21.7312C1.77656 21.2389 1.5 20.5712 1.5 19.875V4.125C1.5 2.676 2.676 1.5 4.125 1.5ZM3.75 4.125V19.875C3.75 20.082 3.918 20.25 4.125 20.25H19.875C19.9745 20.25 20.0698 20.2105 20.1402 20.1402C20.2105 20.0698 20.25 19.9745 20.25 19.875V4.125C20.25 4.02554 20.2105 3.93016 20.1402 3.85984C20.0698 3.78951 19.9745 3.75 19.875 3.75H4.125C4.02554 3.75 3.93016 3.78951 3.85984 3.85984C3.78951 3.93016 3.75 4.02554 3.75 4.125Z" />
</svg>
