<svg width="24" height="24" viewBox="0 0 24 24" fill="#F6C653" xmlns="http://www.w3.org/2000/svg">
<path id="Vector" d="M4.125 1.5H19.875C21.324 1.5 22.5 2.676 22.5 4.125V19.875C22.5 20.5712 22.2234 21.2389 21.7312 21.7312C21.2389 22.2234 20.5712 22.5 19.875 22.5H4.125C3.42881 22.5 2.76113 22.2234 2.26884 21.7312C1.77656 21.2389 1.5 20.5712 1.5 19.875V4.125C1.5 2.676 2.676 1.5 4.125 1.5ZM3.75 4.125V19.875C3.75 20.082 3.918 20.25 4.125 20.25H19.875C19.9745 20.25 20.0698 20.2105 20.1402 20.1402C20.2105 20.0698 20.25 19.9745 20.25 19.875V4.125C20.25 4.02554 20.2105 3.93016 20.1402 3.85984C20.0698 3.78951 19.9745 3.75 19.875 3.75H4.125C4.02554 3.75 3.93016 3.78951 3.85984 3.85984C3.78951 3.93016 3.75 4.02554 3.75 4.125ZM17.67 9.42L10.92 16.17C10.7091 16.3807 10.4231 16.499 10.125 16.499C9.82687 16.499 9.54094 16.3807 9.33 16.17L6.33 13.17C6.13139 12.9566 6.02323 12.6745 6.02827 12.3831C6.0333 12.0916 6.15114 11.8134 6.357 11.607C6.5634 11.4011 6.84158 11.2833 7.13305 11.2783C7.42453 11.2732 7.70661 11.3814 7.92 11.58L10.125 13.785L16.08 7.83C16.2934 7.63139 16.5755 7.52323 16.8669 7.52827C17.1584 7.5333 17.4366 7.65114 17.643 7.857C17.8489 8.0634 17.9667 8.34158 17.9717 8.63305C17.9768 8.92453 17.8686 9.20661 17.67 9.42Z" />
</svg>
