<svg width="40" height="40" viewBox="0 0 40 40" fill="none" xmlns="http://www.w3.org/2000/svg">
<path d="M20.0001 22.3334L11.8334 30.5001C11.5279 30.8056 11.139 30.9584 10.6667 30.9584C10.1945 30.9584 9.80564 30.8056 9.50008 30.5001C9.19453 30.1945 9.04175 29.8056 9.04175 29.3334C9.04175 28.8612 9.19453 28.4723 9.50008 28.1667L17.6667 20.0001L9.50008 11.8334C9.19453 11.5279 9.04175 11.139 9.04175 10.6667C9.04175 10.1945 9.19453 9.80564 9.50008 9.50008C9.80564 9.19453 10.1945 9.04175 10.6667 9.04175C11.139 9.04175 11.5279 9.19453 11.8334 9.50008L20.0001 17.6667L28.1667 9.50008C28.4723 9.19453 28.8612 9.04175 29.3334 9.04175C29.8056 9.04175 30.1945 9.19453 30.5001 9.50008C30.8056 9.80564 30.9584 10.1945 30.9584 10.6667C30.9584 11.139 30.8056 11.5279 30.5001 11.8334L22.3334 20.0001L30.5001 28.1667C30.8056 28.4723 30.9584 28.8612 30.9584 29.3334C30.9584 29.8056 30.8056 30.1945 30.5001 30.5001C30.1945 30.8056 29.8056 30.9584 29.3334 30.9584C28.8612 30.9584 28.4723 30.8056 28.1667 30.5001L20.0001 22.3334Z" fill="white"/>
</svg>
