<svg width="24" height="24" viewBox="0 0 24 24" fill="none" xmlns="http://www.w3.org/2000/svg">
<path d="M19 19L15.1396 15.1396M15.1396 15.1396C15.7999 14.4793 16.3237 13.6953 16.6811 12.8326C17.0385 11.9698 17.2224 11.0451 17.2224 10.1112C17.2224 9.17735 17.0385 8.25264 16.6811 7.38987C16.3237 6.5271 15.7999 5.74316 15.1396 5.08283C14.4793 4.42249 13.6953 3.89868 12.8326 3.54131C11.9698 3.18394 11.0451 3 10.1112 3C9.17735 3 8.25264 3.18394 7.38987 3.54131C6.5271 3.89868 5.74316 4.42249 5.08283 5.08283C3.74921 6.41644 3 8.2252 3 10.1112C3 11.9972 3.74921 13.806 5.08283 15.1396C6.41644 16.4732 8.2252 17.2224 10.1112 17.2224C11.9972 17.2224 13.806 16.4732 15.1396 15.1396Z" stroke="#9CA3AF" stroke-width="1.5" stroke-linecap="round" stroke-linejoin="round"/>
</svg>
